# xmcd
#
# Track frame offsets:
#	150
#	12583
#	30847
#	51923
#	70100
#	108879
#	124997
#	140521
#	168742
#	184734
#
# Disc length: 2758 seconds
#
# Revision: 1
# Processed by: cddbd v1.5.2PL0 Copyright (c) Steve Scherf et al.
# Submitted via: audiograbber 1.83.01
#
DISCID=880ac40a
DTITLE=Erwin Java - Keepin' It Real
DYEAR=2017
DGENRE=Blues
TTITLE0=Sweet Georgia Brown
TTITLE1=High and Lonesome
TTITLE2=Don't Give Up on Me
TTITLE3=Red House
TTITLE4=I Put a Spell on You
TTITLE5=You Don't Have To Go
TTITLE6=Big Boss Man
TTITLE7=Ain't No Love In The Heart of The City
TTITLE8=Divin' Duck Blues
TTITLE9=A Change is Gonna Come
EXTD=
EXTT0=
EXTT1=
EXTT2=
EXTT3=
EXTT4=
EXTT5=
EXTT6=
EXTT7=
EXTT8=
EXTT9=
PLAYORDER=
